<svg width="100" height="100" viewBox="0 0 100 100" fill="none" xmlns="http://www.w3.org/2000/svg">
<g clip-path="url(#clip0_273_234)">
<path d="M99.3749 95.916L81.7968 54.9004C81.5709 54.3734 81.1953 53.9243 80.7166 53.6087C80.238 53.2931 79.6772 53.1249 79.1038 53.125H20.5101C19.3382 53.125 18.2792 53.823 17.8177 54.9004L0.239579 95.916C-0.58757 97.8455 0.828446 100 2.93196 100H96.682C98.7808 100 100.204 97.8492 99.3751 95.916H99.3749Z" fill="#E0F4FE"/>
<path d="M96.6816 100H49.8066V53.125H79.1035C80.2754 53.125 81.3344 53.8238 81.7967 54.9004L99.3748 95.916C100.203 97.8492 98.7811 100 96.6814 100H96.6816Z" fill="#BCDCFE"/>
<path d="M12.443 83.2888L9.99238 88.0294C9.99238 88.0294 8.03848 92.5903 7.37402 94.1407H42.7346L46.5271 93.686L28.1623 75.229L12.443 83.2888Z" fill="#159BE1"/>
<path d="M86.7934 82.3227L85.8602 79.2543L77.1727 58.9844H66.6898L59.5961 59.1125L28.1621 75.2289L46.527 93.6859L51.0199 94.1406H57.1156L64.1256 93.9445L86.7934 82.3227Z" fill="#5DC983"/>
<path d="M86.7932 82.3219L64.1254 93.9453L57.1156 94.1406H51.0197L49.8066 94.0178V64.1328L59.5957 59.1135L64.3346 59.0273L66.6896 58.9846H77.1717L85.8592 79.2543L86.7932 82.3219ZM22.4414 58.9844C20.6455 63.1752 13.6211 79.5625 13.6211 79.5625L12.4424 83.2885L59.5951 59.1127L53.8303 58.9844H22.4414Z" fill="#0EAB61"/>
<path d="M59.5959 59.1133L49.8066 64.1328V58.9844H53.8303L59.5959 59.1133Z" fill="#0EAB61"/>
<path d="M86.7937 82.3228L64.126 93.9446L69.8564 94.1407H92.2389C90.8844 90.9787 89.5297 87.8169 88.1746 84.6552L86.7937 82.3228Z" fill="#159BE1"/>
<path d="M33.0709 76.1918L51.0199 94.1406H42.7342L27.5896 78.9961L10.0078 87.9922L13.6211 79.5625C14.1018 79.3168 53.3496 59.2301 53.8303 58.9844H66.6896L33.0709 76.1918Z" fill="#FED941"/>
<path d="M49.8066 92.9277L51.0195 94.1406H49.8066V92.9277Z" fill="#FEB99E"/>
<path d="M66.6897 58.9844L63.1801 60.7813L49.8066 67.6246V61.043C52.2129 59.8125 53.7389 59.0313 53.8303 58.9846L66.6897 58.9844ZM88.174 84.6543L69.8559 94.1406H57.1156L85.8594 79.2541L88.174 84.6543Z" fill="#FCBE29"/>
<path d="M49.8066 0C35.4854 0 23.4395 10.498 23.4395 28.7109C23.4395 47.1725 46.61 74.0303 47.5963 75.1648C48.7623 76.5061 50.8496 76.5084 52.0176 75.1648C53.0039 74.0303 76.1738 47.1727 76.1738 28.7109C76.1738 10.666 63.9072 0 49.8066 0ZM49.8066 35.1562C44.9604 35.1562 41.0176 31.2133 41.0176 26.3672C41.0176 21.5211 44.9604 17.5781 49.8066 17.5781C54.6529 17.5781 58.5957 21.5211 58.5957 26.3672C58.5957 31.2133 54.6527 35.1562 49.8066 35.1562Z" fill="#EE3616"/>
<path d="M49.8066 0V17.5781C54.6527 17.5781 58.5957 21.5217 58.5957 26.3672C58.5957 31.2127 54.6527 35.1562 49.8066 35.1562V76.1719C50.6215 76.1719 51.434 75.8361 52.0176 75.1641C60.6586 65.2305 76.1738 43.5943 76.1738 28.7109C76.1738 10.666 63.9064 0 49.8066 0Z" fill="#CB0010"/>
</g>
<defs>
<clipPath id="clip0_273_234">
<rect width="100" height="100" fill="white"/>
</clipPath>
</defs>
</svg>
