<svg width="100" height="100" viewBox="0 0 100 100" fill="none" xmlns="http://www.w3.org/2000/svg">
<g clip-path="url(#clip0_272_200)">
<path d="M75 79.6924V86.1285C75 86.4911 75.144 86.8389 75.4004 87.0953C75.6568 87.3517 76.0046 87.4957 76.3672 87.4957H76.7578C77.1204 87.4957 77.4682 87.6397 77.7246 87.8961C77.981 88.1525 78.125 88.5003 78.125 88.8629V98.6285C78.125 98.9911 78.269 99.3389 78.5254 99.5953C78.7818 99.8517 79.1296 99.9957 79.4922 99.9957H83.0078C83.3704 99.9957 83.7182 99.8517 83.9746 99.5953C84.231 99.3389 84.375 98.9911 84.375 98.6285V88.8629C84.375 88.5003 84.519 88.1525 84.7754 87.8961C85.0318 87.6397 85.3796 87.4957 85.7422 87.4957H86.1328C86.4954 87.4957 86.8432 87.3517 87.0996 87.0953C87.356 86.8389 87.5 86.4911 87.5 86.1285V79.6924H75ZM40.625 79.6924V86.1285C40.625 86.4911 40.769 86.8389 41.0254 87.0953C41.2818 87.3517 41.6296 87.4957 41.9922 87.4957H42.3828C42.7454 87.4957 43.0932 87.6397 43.3496 87.8961C43.606 88.1525 43.75 88.5003 43.75 88.8629V98.6285C43.75 98.9911 43.894 99.3389 44.1504 99.5953C44.4068 99.8517 44.7546 99.9957 45.1172 99.9957H48.6328C48.9954 99.9957 49.3432 99.8517 49.5996 99.5953C49.856 99.3389 50 98.9911 50 98.6285V88.8629C50 88.5003 50.144 88.1525 50.4004 87.8961C50.6568 87.6397 51.0046 87.4957 51.3672 87.4957H51.7578C52.1204 87.4957 52.4682 87.3517 52.7246 87.0953C52.981 86.8389 53.125 86.4911 53.125 86.1285V79.6924H40.625Z" fill="#9A9AA8"/>
<path d="M62.4959 62.4959L53.1229 65.052L43.75 62.4959V45.1172C43.75 44.7546 43.894 44.4068 44.1504 44.1504C44.4068 43.894 44.7546 43.75 45.1172 43.75H50L53.3535 45.3459L56.25 43.75H61.1287C61.4913 43.75 61.8391 43.894 62.0955 44.1504C62.3519 44.4068 62.4959 44.7546 62.4959 45.1172V62.4959Z" fill="#F8D075"/>
<path d="M90.6252 81.2461H40.4115L37.8574 79.1586V64.7311L40.4115 62.4961H90.6252C95.8029 62.4961 100 66.6934 100 71.8711C100 77.0488 95.8029 81.2461 90.6252 81.2461Z" fill="#71717C"/>
<path d="M34.3754 62.4961L31.8213 64.7311V79.1586L34.3754 81.2461H40.4117V62.4961H34.3754Z" fill="#62626B"/>
<path d="M90.6252 74.9961H40.4115L37.8574 71.8711L40.4115 68.7461H90.6252C92.3512 68.7461 92.0603 70.1451 92.0603 71.8711C92.0603 73.5971 92.3512 74.9961 90.6252 74.9961Z" fill="#E6E6E6"/>
<path d="M31.8213 68.7461H40.4115V74.9961H31.8213V68.7461Z" fill="#CCCCCC"/>
<path d="M90.625 74.9961C92.3509 74.9961 93.75 73.597 93.75 71.8711C93.75 70.1452 92.3509 68.7461 90.625 68.7461C88.8991 68.7461 87.5 70.1452 87.5 71.8711C87.5 73.597 88.8991 74.9961 90.625 74.9961Z" fill="#CCCCCC"/>
<path d="M75 74.9961C76.7259 74.9961 78.125 73.597 78.125 71.8711C78.125 70.1452 76.7259 68.7461 75 68.7461C73.2741 68.7461 71.875 70.1452 71.875 71.8711C71.875 73.597 73.2741 74.9961 75 74.9961Z" fill="#CCCCCC"/>
<path d="M59.375 74.9961C61.1009 74.9961 62.5 73.597 62.5 71.8711C62.5 70.1452 61.1009 68.7461 59.375 68.7461C57.6491 68.7461 56.25 70.1452 56.25 71.8711C56.25 73.597 57.6491 74.9961 59.375 74.9961Z" fill="#CCCCCC"/>
<path d="M43.75 74.9961C45.4759 74.9961 46.875 73.597 46.875 71.8711C46.875 70.1452 45.4759 68.7461 43.75 68.7461C42.0241 68.7461 40.625 70.1452 40.625 71.8711C40.625 73.597 42.0241 74.9961 43.75 74.9961Z" fill="#CCCCCC"/>
<path d="M54.8828 50H51.3672C51.0046 50 50.6568 49.856 50.4004 49.5996C50.144 49.3432 50 48.9954 50 48.6328V43.75H56.25V48.6328C56.25 48.9954 56.106 49.3432 55.8496 49.5996C55.5932 49.856 55.2454 50 54.8828 50Z" fill="#DAEBFB"/>
<path d="M86.1309 56.248H70.1191C69.7565 56.248 69.4088 56.104 69.1524 55.8476C68.896 55.5912 68.752 55.2435 68.752 54.8809V37.502H75.002L78.127 39.7283L81.252 37.502H87.4979V54.8807C87.4979 55.0602 87.4626 55.238 87.3939 55.4039C87.3252 55.5698 87.2245 55.7205 87.0976 55.8475C86.9707 55.9745 86.8199 56.0752 86.6541 56.144C86.4882 56.2127 86.3104 56.248 86.1309 56.248Z" fill="#F8D075"/>
<path d="M79.8848 43.752H76.3691C76.0065 43.752 75.6588 43.6079 75.4024 43.3515C75.146 43.0951 75.002 42.7474 75.002 42.3848V37.502H81.252V42.3848C81.252 42.7474 81.1079 43.0951 80.8515 43.3515C80.5951 43.6079 80.2474 43.752 79.8848 43.752Z" fill="#DAEBFB"/>
<path d="M16.9189 18.75L12.5 21.2031L8.08105 18.75V16.9189C8.08105 14.4783 10.0596 12.5 12.5 12.5C14.9404 12.5 16.9189 14.4783 16.9189 16.9189V18.75Z" fill="#F8D075"/>
<path d="M30.4537 99.996H25L22.208 97.5138H10.4809L8.08105 99.996L6.25 96.4155V82.4196L8.08105 78.1353H31.8209V98.6288C31.8209 98.9914 31.6769 99.3392 31.4205 99.5956C31.1641 99.852 30.8163 99.996 30.4537 99.996Z" fill="#9A9AA8"/>
<path d="M2.55371 78.1353V98.6288C2.55371 98.9914 2.69775 99.3392 2.95415 99.5956C3.21055 99.852 3.5583 99.996 3.9209 99.996H8.08086V78.1353H2.55371Z" fill="#7E7E89"/>
<path d="M34.3746 81.2459H6.24961L2.55371 78.1352V31.25L6.24961 28.125H30.5354L34.3746 31.25V81.2459Z" fill="#5BA3F2"/>
<path d="M10.1025 28.125H3.85254L0 31.25V79.8787C0 80.2413 0.144043 80.5891 0.40044 80.8455C0.656837 81.1019 1.00459 81.2459 1.36719 81.2459H6.25V31.25L10.1025 28.125Z" fill="#3C91DD"/>
<path d="M18.75 27.3215H6.25L12.2863 18.75H17.3828C17.7454 18.75 18.0932 18.894 18.3496 19.1504C18.606 19.4068 18.75 19.7546 18.75 20.1172V27.3215Z" fill="#E6E6E6"/>
<path d="M6.25 20.1172V27.3215H12.2863V18.75H7.61719C7.25459 18.75 6.90684 18.894 6.65044 19.1504C6.39404 19.4068 6.25 19.7546 6.25 20.1172Z" fill="#CCCCCC"/>
<path d="M26.7578 56.25H7.61719C7.25459 56.25 6.90684 56.106 6.65044 55.8496C6.39404 55.5932 6.25 55.2454 6.25 54.8828V38.8672C6.25 38.5046 6.39404 38.1568 6.65044 37.9004C6.90684 37.644 7.25459 37.5 7.61719 37.5H26.7578C27.1204 37.5 27.4682 37.644 27.7246 37.9004C27.981 38.1568 28.125 38.5046 28.125 38.8672V54.8828C28.125 55.2454 27.981 55.5932 27.7246 55.8496C27.4682 56.106 27.1204 56.25 26.7578 56.25Z" fill="#DAEBFB"/>
<path d="M34.375 31.25H6.25L3.125 28.125L6.25 25H33.0078C33.3704 25 33.7182 25.144 33.9746 25.4004C34.231 25.6568 34.375 26.0046 34.375 26.3672V31.25Z" fill="#9A9AA8"/>
<path d="M0 26.3672V31.25H6.25V25H1.36719C1.00459 25 0.656837 25.144 0.40044 25.4004C0.144043 25.6568 0 26.0046 0 26.3672Z" fill="#7E7E89"/>
<path d="M25 100H8.08105V88.8633C8.08105 88.5007 8.2251 88.1529 8.48149 87.8965C8.73789 87.6401 9.08564 87.4961 9.44824 87.4961H23.6328C23.9954 87.4961 24.3432 87.6401 24.5996 87.8965C24.856 88.1529 25 88.5007 25 88.8633V100Z" fill="#E6E6E6"/>
<path d="M89.7981 29.8635L80.4696 25.9299C80.2218 25.8254 80.0103 25.6502 79.8616 25.4261C79.7129 25.202 79.6336 24.9391 79.6336 24.6701V16.9147C79.6336 16.0883 78.9969 15.3678 78.1709 15.343C77.9689 15.3368 77.7678 15.3712 77.5793 15.4442C77.3909 15.5173 77.2191 15.6274 77.074 15.768C76.9289 15.9087 76.8136 16.0771 76.7348 16.2632C76.6561 16.4493 76.6155 16.6493 76.6154 16.8514V24.6701C76.6155 24.9391 76.5361 25.202 76.3875 25.4261C76.2388 25.6502 76.0273 25.8254 75.7795 25.9299L66.4529 29.8635C66.1157 30.0057 65.8417 30.2657 65.6818 30.5949C65.522 30.9241 65.4872 31.3002 65.584 31.6532L67.2973 37.9012C67.8195 39.8067 70.7434 39.0561 70.208 37.103L69.1613 33.2862C69.0737 32.9664 69.1052 32.6257 69.25 32.3274C69.3949 32.0292 69.6431 31.7937 69.9487 31.6649L77.5934 28.4407C77.7615 28.3697 77.9421 28.3332 78.1246 28.3332C78.3071 28.3332 78.4877 28.3697 78.6559 28.4407L86.3024 31.6649C86.6079 31.7937 86.8562 32.0291 87.0011 32.3274C87.1459 32.6257 87.1774 32.9664 87.0897 33.2862C85.96 37.4061 85.9891 37.217 85.9891 37.5028C85.9891 39.258 88.492 39.586 88.9539 37.901L90.6672 31.653C90.7639 31.3 90.7291 30.9239 90.5692 30.5948C90.4093 30.2656 90.1353 30.0057 89.7981 29.8635Z" fill="#71717C"/>
<path d="M7.80645 60.9914C6.99648 60.9914 6.30371 61.6547 6.30371 62.4988C6.30371 63.3422 6.98691 64.0078 7.8127 64.0078C8.53887 64.0078 9.32168 63.435 9.32168 62.4988C9.32207 61.7066 8.6875 60.9914 7.80645 60.9914ZM14.0627 60.9912C13.2354 60.9912 12.5533 61.6646 12.5533 62.4988C12.5531 62.697 12.592 62.8933 12.6678 63.0765C12.7436 63.2597 12.8547 63.4261 12.9949 63.5662C13.135 63.7064 13.3015 63.8175 13.4846 63.8933C13.6678 63.9691 13.8641 64.008 14.0623 64.0078C14.9953 64.0078 15.7238 63.1693 15.5434 62.2051C15.3924 61.4811 14.7721 60.9912 14.0627 60.9912ZM20.3131 60.9912C19.4701 60.9912 18.8029 61.6797 18.8029 62.4988C18.8031 62.899 18.9622 63.2827 19.2451 63.5656C19.5281 63.8486 19.9118 64.0076 20.3119 64.0078C21.1539 64.0078 21.8209 63.3254 21.8209 62.4988C21.8211 61.6646 21.1441 60.9912 20.3131 60.9912ZM26.5688 60.9914C26.3702 60.9905 26.1734 61.0288 25.9898 61.1041C25.8061 61.1795 25.6391 61.2904 25.4984 61.4304C25.3577 61.5705 25.246 61.737 25.1698 61.9203C25.0937 62.1037 25.0545 62.3003 25.0545 62.4988C25.0543 62.697 25.0932 62.8933 25.169 63.0765C25.2448 63.2597 25.3559 63.4261 25.4961 63.5662C25.6362 63.7064 25.8026 63.8175 25.9858 63.8933C26.169 63.9691 26.3653 64.008 26.5635 64.0078C26.7618 64.0083 26.9582 63.9696 27.1415 63.8939C27.3248 63.8183 27.4914 63.7071 27.6316 63.5669C27.7718 63.4267 27.8829 63.2602 27.9586 63.0769C28.0343 62.8936 28.073 62.6971 28.0725 62.4988C28.0727 61.6604 27.385 60.9914 26.5688 60.9914Z" fill="#F8D075"/>
<path d="M15.6252 48.4909H12.5002C12.1 48.4909 11.7162 48.6499 11.4332 48.9329C11.1502 49.2159 10.9912 49.5997 10.9912 49.9999C10.9912 50.4001 11.1502 50.7839 11.4332 51.0669C11.7162 51.3499 12.1 51.5089 12.5002 51.5089H15.6252C16.0254 51.5089 16.4092 51.3499 16.6922 51.0669C16.9752 50.7839 17.1342 50.4001 17.1342 49.9999C17.1342 49.5997 16.9752 49.2159 16.6922 48.9329C16.4092 48.6499 16.0254 48.4909 15.6252 48.4909ZM79.883 20.3288H76.3693C76.0067 20.3288 75.659 20.1848 75.4026 19.9284C75.1462 19.672 75.0022 19.3242 75.0022 18.9616V10.1558H81.2502V18.9616C81.2502 19.3242 81.1062 19.672 80.8498 19.9284C80.5934 20.1848 80.2456 20.3288 79.883 20.3288Z" fill="#9A9AA8"/>
<path d="M83.5279 12.5H72.7199C72.466 12.5 72.2171 12.4293 72.0011 12.2958C71.7851 12.1623 71.6106 11.9713 71.4971 11.7441L68.75 6.25L72.6852 3.125H83.5623L87.4979 6.25L84.7508 11.7441C84.6373 11.9713 84.4628 12.1623 84.2468 12.2958C84.0308 12.4293 83.7819 12.5 83.5279 12.5Z" fill="#71717C"/>
<path d="M98.6328 6.25H6.03633L3.4209 2.70801L6.03633 0H98.6328C98.9954 0 99.3432 0.144043 99.5996 0.40044C99.856 0.656837 100 1.00459 100 1.36719V4.88281C100 5.24541 99.856 5.59316 99.5996 5.84956C99.3432 6.10596 98.9954 6.25 98.6328 6.25Z" fill="#71717C"/>
<path d="M0 1.36719V4.88281C0 5.24541 0.144043 5.59316 0.40044 5.84956C0.656837 6.10596 1.00459 6.25 1.36719 6.25H6.03633V0H1.36719C1.00459 0 0.656837 0.144043 0.40044 0.40044C0.144043 0.656837 0 1.00459 0 1.36719Z" fill="#62626B"/>
</g>
<defs>
<clipPath id="clip0_272_200">
<rect width="100" height="100" fill="white"/>
</clipPath>
</defs>
</svg>
