<svg xmlns="http://www.w3.org/2000/svg" version="1.1" xmlns:xlink="http://www.w3.org/1999/xlink" width="100" height="100" x="0" y="0" viewBox="0 0 512 512" style="enable-background:new 0 0 512 512" xml:space="preserve" class=""><g><path fill="#fdcb89" d="M512 450.189v41.207C512 502.78 502.78 512 491.396 512H256.762c-67.91-19.801-102.02-88.246-44.762-114l149.106-3.625 130.29 35.21c11.384.001 20.604 9.221 20.604 20.604z" opacity="1" data-original="#fdcb89"></path><path fill="#fdc072" d="M256.762 512H20.604C9.22 512 0 502.78 0 491.396v-41.207c0-11.384 9.22-20.604 20.604-20.604l106.101-23.411 101.172 23.411c-9.7 25.755 4.017 62.612 28.885 82.415z" opacity="1" data-original="#fdc072"></path><circle cx="450.189" cy="470.793" r="15.453" fill="#fab658" opacity="1" data-original="#fab658"></circle><circle cx="61.811" cy="470.793" r="15.453" fill="#f8ad3e" opacity="1" data-original="#f8ad3e"></circle><path fill="#ace094" d="M354.208 108.487c17.965-6.539 28.614-22.595 20.921-43.73-8.823-24.241-36.587-54.378-49.468-59.797-6.079-2.557-13.117.005-16.13 5.871-6.385 12.431-8.282 53.363.542 77.605 7.692 21.135 26.17 26.59 44.135 20.051z" opacity="1" data-original="#ace094" class=""></path><path fill="#ace094" d="M348.543 106.425c-9.559-16.557-7.396-35.701 12.082-46.947 22.341-12.899 62.981-18.139 76.332-14.009 6.3 1.949 10.045 8.435 8.582 14.865-3.099 13.627-27.957 46.202-50.298 59.1-19.478 11.247-37.139 3.548-46.698-13.009z" opacity="1" data-original="#ace094" class=""></path><path fill="#bbe5a7" d="M343.097 129.831c-18.712-6.811-29.009-25.721-19.432-52.032 10.984-30.178 42.532-68.792 56.61-76.25 6.643-3.52 13.974-.851 16.801 6.115 5.99 14.762 5.337 64.621-5.647 94.799-9.577 26.31-29.619 34.178-48.332 27.368z" opacity="1" data-original="#bbe5a7"></path><path fill="#fdc072" d="M419.799 149.943c-11.129 15.662-54.167 53.879-65.695 53.879-48.573 0-71.629-76.182-65.695-122.025 21.654-13.341 47.605-12.826 73.534-3.389 33.039 12.021 56.805 35.169 57.856 71.535z" opacity="1" data-original="#fdc072"></path><path fill="#fab658" d="M411.763 193.653c-13.063 35.892-57.783 74.966-93.314 101.617-22.942 17.214-56.063 5.161-62.573-22.777-10.085-43.257-19.233-101.926-6.171-137.828 9.529-26.187 22.983-43.185 38.704-52.869 9.375 41.774 49.902 73.184 98.475 73.184 11.528 0 22.602-1.772 32.914-5.037.372 12.877-2.101 27.423-8.035 43.71z" opacity="1" data-original="#fab658"></path><path fill="#ace094" d="M308.014 373.966c-76.426 26.383-165.75-2.93-216.507-63.423-62.893-74.956-53.524-198.614 1.549-252.266 10.92-2.029 22.592-1.484 34.212 2.101 5.851 1.813 12.197 1.308 17.565-1.669 13.959-7.747 31.08-9.632 47.275-3.74 15.411 5.604 26.939 17.163 32.945 31.122 3.163 7.366 9.921 12.455 17.822 13.846 16.061 2.823 30.802 12.476 39.6 27.701a56.914 56.914 0 0 1 7.304 34.934c-.989 8.684 2.452 17.379 9.467 22.592 14.021 10.405 23.097 27.084 23.097 45.884 0 11.394-3.338 22.015-9.086 30.926a23.553 23.553 0 0 0-1.885 22.005 885.872 885.872 0 0 1 6.387 15.422c10.251 25.395 6.037 53.673-9.745 74.565z" opacity="1" data-original="#ace094" class=""></path><path fill="#9cda82" d="M308.014 373.966a74.863 74.863 0 0 1-18.296 17.266c-14.34 9.57-30.483 18.904-45.967 26.568-32.43 16.081-71.731 7.118-94.035-21.407a927.388 927.388 0 0 1-10.055-13.094c-4.687-6.233-12.115-9.921-19.903-9.519-13.928.731-28.145-3.616-39.672-13.279-11.61-9.745-18.368-23.117-20.006-37.076-1.03-8.684-6.614-16.112-14.649-19.573-10.889-4.697-20.418-12.815-26.805-23.88-8.787-15.226-9.776-32.822-4.183-48.151 2.74-7.531 1.71-15.927-3.08-22.355-9.097-12.177-13.33-27.939-10.487-44.092 2.998-16.967 13.186-30.854 26.877-39.075 5.264-3.152 8.87-8.396 10.23-14.371 6.552-28.711 28.629-48.738 55.073-53.652-41.073 59.761-28.742 156.072 34.15 231.028 50.758 60.494 120.934 90.967 180.808 84.662z" opacity="1" data-original="#9cda82" class=""></path><g fill="#fff8e6"><path d="M206.786 289.9a7.725 7.725 0 0 1-7.719-7.522c-1.107-41.8 11.593-80.07 37.744-113.747a7.727 7.727 0 0 1 12.205 9.478c-23.903 30.782-35.512 65.725-34.503 103.861a7.726 7.726 0 0 1-7.727 7.93zM142.371 178.331a7.725 7.725 0 0 1-7.719-7.522c-.699-26.425 4.129-51.592 14.348-74.801a7.73 7.73 0 0 1 10.185-3.958 7.728 7.728 0 0 1 3.958 10.185c-9.293 21.105-13.682 44.039-13.044 68.165a7.726 7.726 0 0 1-7.728 7.931zM173.002 231.385a7.725 7.725 0 0 1-7.719-7.521c-.917-34.489 7.587-66.685 25.273-95.695a7.726 7.726 0 1 1 13.193 8.044c-16.11 26.425-23.855 55.777-23.019 87.24a7.726 7.726 0 0 1-7.728 7.932zM190.293 299.422a7.69 7.69 0 0 1-4.032-1.141c-32.522-19.942-68.589-27.36-107.198-22.05-4.209.575-8.125-2.374-8.706-6.602a7.726 7.726 0 0 1 6.602-8.707c42.242-5.807 81.734 2.329 117.381 24.186a7.726 7.726 0 0 1-4.047 14.314zM125.877 187.853a7.691 7.691 0 0 1-4.031-1.14c-20.578-12.617-42.634-20.283-65.555-22.786a7.728 7.728 0 0 1-6.842-8.52 7.72 7.72 0 0 1 8.52-6.842c25.207 2.753 49.415 11.155 71.954 24.973a7.725 7.725 0 0 1 2.548 10.625 7.722 7.722 0 0 1-6.594 3.69zM156.508 240.907a7.687 7.687 0 0 1-4.032-1.141c-26.831-16.456-56.117-24.433-87.061-23.685-4.294.113-7.807-3.274-7.909-7.54s3.274-7.807 7.539-7.909c33.981-.809 66.098 7.923 95.51 25.96a7.726 7.726 0 0 1 2.547 10.626 7.719 7.719 0 0 1-6.594 3.689z" fill="#fff8e6" opacity="1" data-original="#fff8e6" class=""></path><path d="m286.372 356.319-71.652 41.369L82.077 110.012c-6.334-13.759 12.743-24.773 21.482-12.403z" fill="#fff8e6" opacity="1" data-original="#fff8e6" class=""></path></g><path fill="#ff8f71" d="M504.747 335.458c-3.894 10.704-9.797 21.098-17.348 30.638-18.183 14.933-64.257 28.28-82.863 28.28-62.583 0-117.042-61.147-117.042-123.73 0-32.461 29.366-67.805 70.462-87.839 18.286.68 38.58 5.037 60.575 13.053 76.811 27.947 109.19 76.499 86.216 139.598z" opacity="1" data-original="#ff8f71"></path><path fill="#ff7f5a" d="M487.399 366.096c-29.649 37.437-84.877 61.687-145.286 39.703-75.801-27.588-98.558-105.717-79.375-158.421 16.39-45.029 49.613-66.271 95.22-64.572-21.881 20.655-35.531 49.933-35.531 82.394 0 62.584 50.736 113.32 113.32 113.32 18.604-.001 36.158-4.482 51.652-12.424z" opacity="1" data-original="#ff7f5a"></path><path fill="#ace094" d="M316.861 202.84c3.264 18.512 26.698 29.854 47.004 26.274 34.493-6.082 55.944-44.426 55.944-44.426s-33.272-28.695-67.765-22.613c-20.306 3.58-38.447 22.253-35.183 40.765zM491.917 266.555c-14.4 12.083-39.642 5.708-52.895-10.087-22.514-26.831-14.299-69.993-14.299-69.993s43.932-.595 66.446 26.236c13.254 15.796 15.148 41.761.748 53.844z" opacity="1" data-original="#ace094" class=""></path><g fill="#bbe5a7"><path d="M389.855 274.631c-17.664-6.429-24.765-31.476-17.712-50.852 6.895-18.944 23.566-31.778 36.475-39.258 9.277-5.376 21.135-1.06 24.786 9.021 5.08 14.028 9.602 34.575 2.707 53.519-7.053 19.376-28.592 33.999-46.256 27.57z" fill="#bbe5a7" opacity="1" data-original="#bbe5a7"></path><path d="M417.919 201.563c-.992 0-2-.192-2.972-.598a7.726 7.726 0 0 1-4.156-10.106c8.829-21.162 24.41-35.926 46.312-43.881a7.726 7.726 0 1 1 5.275 14.524c-17.921 6.51-30.13 18.058-37.326 35.307a7.727 7.727 0 0 1-7.133 4.754z" fill="#bbe5a7" opacity="1" data-original="#bbe5a7"></path></g><path fill="#ffd9a0" d="M512 367.775v41.207c0 11.384-9.22 20.604-20.604 20.604h-327.35c-54.005-21.39-72.539-66.297-21.675-82.414h349.025c11.384-.001 20.604 9.219 20.604 20.603z" opacity="1" data-original="#ffd9a0"></path><path fill="#fdcb89" d="M164.046 429.586H20.604C9.22 429.586 0 420.365 0 408.982v-41.207c0-11.384 9.22-20.604 20.604-20.604h121.767c-8.216 35.118 1.068 60.755 21.675 82.415z" opacity="1" data-original="#fdcb89"></path><circle cx="450.189" cy="388.378" r="15.453" fill="#fdc072" opacity="1" data-original="#fdc072"></circle><circle cx="61.811" cy="388.378" r="15.453" fill="#fab658" opacity="1" data-original="#fab658"></circle><g fill="#666667"><path d="M191.667 398.606a7.725 7.725 0 0 1-7.726-7.726v-12.362a7.726 7.726 0 1 1 15.452 0v12.362a7.725 7.725 0 0 1-7.726 7.726zM320.333 398.606a7.725 7.725 0 0 1-7.726-7.726v-12.362a7.726 7.726 0 1 1 15.452 0v12.362a7.725 7.725 0 0 1-7.726 7.726zM256 405.965a30.223 30.223 0 0 1-22.786-10.377 7.726 7.726 0 1 1 11.65-10.153c2.812 3.226 6.87 5.077 11.136 5.077s8.324-1.851 11.136-5.077a7.727 7.727 0 0 1 11.649 10.153A30.22 30.22 0 0 1 256 405.965z" fill="#666667" opacity="1" data-original="#666667"></path></g></g></svg>