<svg width="100" height="100" viewBox="0 0 100 100" fill="none" xmlns="http://www.w3.org/2000/svg">
<path d="M49.7951 8.11279L6.9209 22.1974V91.4169H91.2629V21.6065L49.7951 8.11279Z" fill="#B3E59F"/>
<path d="M19.541 41.6562H79.9893V91.4168H19.541V41.6562Z" fill="#665E67"/>
<path d="M72.6006 70.4936L67.2318 71.0027L59.8273 71.999L53.3984 71.0027V53.2043C53.3984 53.0442 53.462 52.8906 53.5753 52.7774C53.6885 52.6642 53.842 52.6006 54.0021 52.6006H59.3275L63.2834 53.7908L67.4801 52.6006H69.1828L72.4584 53.6488L72.6006 70.4936Z" fill="#D98556"/>
<path d="M73.4086 53.2053V71.002L70.8113 72.4533L66.4971 71.002C67.982 71.002 69.1832 69.8008 69.1832 68.3158V52.6016H72.8049C72.8842 52.6015 72.9627 52.6171 73.0359 52.6475C73.1092 52.6778 73.1758 52.7223 73.2318 52.7783C73.2879 52.8344 73.3324 52.901 73.3627 52.9742C73.393 53.0475 73.4086 53.126 73.4086 53.2053Z" fill="#D3744F"/>
<path d="M66.877 60.2109H59.9318C59.7717 60.2109 59.6182 60.1473 59.5049 60.0341C59.3917 59.9209 59.3281 59.7673 59.3281 59.6072V52.6006H67.4807V59.6072C67.4806 59.7673 67.417 59.9208 67.3038 60.0341C67.1906 60.1473 67.0371 60.2109 66.877 60.2109Z" fill="#F8F7F7"/>
<path d="M22.9588 70.4936L17.59 71.0027L9.68594 72.4535L3.75684 71.0027V53.2043C3.75684 53.0442 3.82044 52.8906 3.93366 52.7774C4.04688 52.6642 4.20043 52.6006 4.36055 52.6006H9.68594L13.6418 53.7908L17.8385 52.6006H19.5412L22.8168 53.6488L22.9588 70.4936Z" fill="#E89C69"/>
<path d="M23.7668 53.2053V71.002L21.3477 72.4533L16.8555 71.002C18.3404 71.002 19.5416 69.8008 19.5416 68.3158V52.6016H23.1633C23.2426 52.6016 23.321 52.6172 23.3943 52.6475C23.4675 52.6779 23.5341 52.7223 23.5901 52.7784C23.6461 52.8345 23.6906 52.901 23.7209 52.9743C23.7512 53.0475 23.7668 53.126 23.7668 53.2053Z" fill="#D98556"/>
<path d="M17.2344 60.2109H10.2893C10.1291 60.2109 9.97559 60.1473 9.86237 60.0341C9.74915 59.9209 9.68555 59.7673 9.68555 59.6072V52.6006H17.8381V59.6072C17.8381 59.7673 17.7745 59.9209 17.6613 60.0341C17.548 60.1473 17.3945 60.2109 17.2344 60.2109Z" fill="#F8F7F7"/>
<path d="M52.5906 88.8954L47.2219 89.4046L40.5117 90.7087L33.3887 89.4046V71.6062C33.3887 71.446 33.4523 71.2925 33.5655 71.1793C33.6787 71.066 33.8323 71.0024 33.9924 71.0024H39.3178L43.2736 72.1927L47.4703 71.0024H49.173L52.4486 72.0507L52.5906 88.8954Z" fill="#E89C69"/>
<path d="M53.3988 71.0039L55.5104 80.8561L53.3988 89.4043L50.5867 90.709L46.4873 89.4043C47.9723 89.4043 49.1734 88.2031 49.1734 86.7182V71.0039H53.3988Z" fill="#D98556"/>
<path d="M46.8662 78.6128H39.9211C39.761 78.6128 39.6074 78.5492 39.4942 78.436C39.381 78.3228 39.3174 78.1692 39.3174 78.0091V71.0024H47.4699V78.0091C47.4699 78.0884 47.4543 78.1669 47.424 78.2401C47.3936 78.3134 47.3492 78.3799 47.2931 78.436C47.237 78.492 47.1705 78.5365 47.0972 78.5668C47.024 78.5972 46.9455 78.6128 46.8662 78.6128Z" fill="#F8F7F7"/>
<path d="M72.6004 88.8957L67.2316 89.4049L60.8119 91.4166L53.3984 89.4049V71.0029H59.3275L63.2832 72.1932L67.4799 71.0029H69.1826L72.4582 72.051L72.6004 88.8957Z" fill="#E89C69"/>
<path d="M73.4084 71.0039V89.4043L69.9527 90.709L66.4971 89.4043C67.982 89.4043 69.1832 88.2031 69.1832 86.7182V71.0039H73.4084Z" fill="#D98556"/>
<path d="M66.877 78.6128H59.9318C59.7717 78.6128 59.6182 78.5492 59.5049 78.436C59.3917 78.3228 59.3281 78.1692 59.3281 78.0091V71.0024H67.4807V78.0091C67.4806 78.1692 67.417 78.3227 67.3038 78.4359C67.1906 78.5491 67.0371 78.6127 66.877 78.6128Z" fill="#F8F7F7"/>
<path d="M22.9586 88.8957L17.59 89.4049L9.07598 90.709L3.75684 89.4049V71.0029H9.68574L13.6416 72.1932L17.8383 71.0029H19.541L22.8166 72.051L22.9586 88.8957Z" fill="#D98556"/>
<path d="M23.767 71.0039V89.4043L20.7418 90.709L16.8555 89.4043C18.3404 89.4043 19.5416 88.2031 19.5416 86.7182V71.0039H23.767Z" fill="#D3744F"/>
<path d="M17.2344 78.6128H10.2893C10.1291 78.6128 9.97559 78.5492 9.86237 78.436C9.74915 78.3228 9.68555 78.1692 9.68555 78.0091V71.0024H17.8381V78.0091C17.8381 78.0884 17.8225 78.1669 17.7922 78.2401C17.7619 78.3134 17.7174 78.38 17.6613 78.436C17.6053 78.4921 17.5387 78.5366 17.4654 78.5669C17.3922 78.5972 17.3137 78.6128 17.2344 78.6128Z" fill="#F8F7F7"/>
<path d="M93.0781 26.2294V91.4165H88.4504V28.1208C88.4504 26.823 88.3016 25.5433 88.0117 24.306L90.96 23.52L93.0781 26.2294Z" fill="#95D6A4"/>
<path d="M83.2738 30.8889L76.9465 30.1826H15.8977C15.7375 30.1826 15.584 30.2462 15.4708 30.3594C15.3576 30.4727 15.2939 30.6262 15.2939 30.7863V35.2256L16.4143 36.7346L15.2939 38.2436V42.6811C15.2939 42.8412 15.3576 42.9947 15.4708 43.1079C15.584 43.2212 15.7375 43.2848 15.8977 43.2848H79.9895L82.741 42.6846C82.9011 42.6846 83.0547 42.621 83.1679 42.5077C83.2811 42.3945 83.3447 42.241 83.3447 42.0809L83.8773 31.4926C83.8774 31.4133 83.8618 31.3348 83.8315 31.2616C83.8011 31.1883 83.7567 31.1218 83.7006 31.0657C83.6446 31.0096 83.5781 30.9652 83.5048 30.9348C83.4316 30.9045 83.3531 30.8889 83.2738 30.8889Z" fill="#796E79"/>
<path d="M84.7064 30.7866V35.2253L83.6508 36.7343L84.7064 38.2433V42.68C84.7063 42.84 84.6426 42.9935 84.5295 43.1067C84.4163 43.2199 84.2628 43.2835 84.1027 43.2837H79.99V34.1751C79.99 31.9698 78.2014 30.1831 75.998 30.1831H84.1027C84.2628 30.1832 84.4163 30.2468 84.5295 30.3599C84.6427 30.4731 84.7063 30.6266 84.7064 30.7866Z" fill="#665E67"/>
<path d="M98.5459 21.0252L79.25 12.5592L50.2855 1.57036C50.1016 1.50064 49.8986 1.50064 49.7146 1.57036L0.519336 20.2346C0.366631 20.2925 0.235163 20.3955 0.1424 20.53C0.0496368 20.6644 -2.94644e-05 20.8238 1.31139e-08 20.9872V27.6891C1.31139e-08 28.2524 0.563672 28.6415 1.09023 28.4416L49.7859 9.96664C49.9239 9.9143 50.0763 9.9143 50.2143 9.96664L88.0117 24.3069L97.5504 26.9286C98.077 27.1284 98.6406 26.7393 98.6406 26.176L99.0652 21.7776C99.0652 21.6143 99.0155 21.4549 98.9228 21.3205C98.83 21.1861 98.6986 21.0831 98.5459 21.0252Z" fill="#95D6A4"/>
<path d="M99.9998 20.9879V27.6881C99.9998 28.2516 99.4365 28.6418 98.9092 28.4406L93.0781 26.2293L88.0117 24.3057C87.6625 22.8066 87.1094 21.3626 86.3678 20.0139C85.1861 17.8628 83.5466 15.9972 81.565 14.549L78.4121 12.2412L99.4805 20.2352C99.6332 20.2931 99.7647 20.3961 99.8575 20.5306C99.9502 20.665 99.9999 20.8245 99.9998 20.9879Z" fill="#81C99E"/>
<path d="M15.2939 35.2256H82.7418V38.2438H15.2939V35.2256Z" fill="#665E67"/>
<path d="M79.9902 35.2256H84.7064V38.2438H79.9902V35.2256Z" fill="#554E53"/>
<path d="M98.6107 98.0565L84.067 98.4819H0.804883C0.591415 98.4819 0.38669 98.3971 0.235745 98.2462C0.0847999 98.0952 0 97.8905 0 97.6771L0 90.2097C0 89.9962 0.0847999 89.7915 0.235745 89.6405C0.38669 89.4896 0.591415 89.4048 0.804883 89.4048H88.4508L98.734 90.0366C98.9475 90.0366 99.1522 90.1214 99.3031 90.2724C99.4541 90.4233 99.5389 90.628 99.5389 90.8415L99.4158 97.2517C99.4158 97.4651 99.3309 97.6699 99.1799 97.8208C99.029 97.9718 98.8242 98.0565 98.6107 98.0565Z" fill="#796E79"/>
<path d="M100 90.209V97.6758C100 97.7815 99.9792 97.8862 99.9388 97.9838C99.8983 98.0815 99.8391 98.1702 99.7643 98.245C99.6896 98.3197 99.6008 98.379 99.5032 98.4194C99.4055 98.4599 99.3008 98.4807 99.1951 98.4807H82.8711C85.9535 98.4807 88.4506 95.9838 88.4506 92.9012V89.4043H99.1951C99.3008 89.4043 99.4055 89.4251 99.5031 89.4655C99.6008 89.5059 99.6895 89.5652 99.7642 89.6399C99.839 89.7146 99.8983 89.8034 99.9387 89.901C99.9792 89.9986 100 90.1033 100 90.209Z" fill="#665E67"/>
</svg>
